<?xml version="1.0" encoding="iso-8859-1"?>
<!-- Uploaded to: SVG Repo, www.svgrepo.com, Generator: SVG Repo Mixer Tools -->
<svg fill="#000000" height="800px" width="800px" version="1.1" id="Layer_1" xmlns="http://www.w3.org/2000/svg" xmlns:xlink="http://www.w3.org/1999/xlink" 
	 viewBox="0 0 512 512" xml:space="preserve">
<g>
	<g>
		<polygon points="347.846,166.29 347.846,181.964 347.846,197.637 347.846,332.899 164.153,332.899 164.153,197.637 
			164.153,181.964 164.153,166.29 45.098,166.29 45.098,383.054 60.771,383.054 76.445,383.054 435.555,383.054 451.229,383.054 
			466.902,383.054 466.902,166.29 		"/>
	</g>
</g>
<g>
	<g>
		<path d="M466.902,414.401h-15.674H60.771H45.098H0v96.946h512v-96.946H466.902z M266.836,472.299h-21.671v-21.682h21.671V472.299z
			"/>
	</g>
</g>
<g>
	<g>
		<polygon points="256,0.653 147.331,149.76 195.678,149.76 195.678,166.29 195.678,181.964 195.678,197.637 195.678,270.477 
			316.322,270.477 316.322,197.637 316.322,181.964 316.322,166.29 316.322,149.76 364.669,149.76 		"/>
	</g>
</g>
</svg>